<svg xmlns="http://www.w3.org/2000/svg" width="28" height="27" viewBox="0 0 28 27">
    <g fill="none" fill-rule="evenodd">
        <path d="M-1-2h32v32H-1z"/>
        <g fill="#f82f24" fill-rule="nonzero">
            <path d="M21.067.933c1.76 0 3.329.705 4.53 1.985 1.807 1.857 1.959 4.839.395 7.214-2.545 3.808-6.853 6.268-8.864 6.268-2.012 0-6.32-2.46-8.863-6.266C6.7 7.882 6.852 4.899 8.657 2.92 9.827 1.674 11.51.933 13.188.933c1.383 0 2.78.47 3.94 1.314 1.196-.874 2.476-1.314 3.94-1.314zm-.773 12.725c1.664-1.004 3.195-2.44 4.489-4.381 1.153-1.844 1.081-4.086-.242-5.47a4.697 4.697 0 0 0-3.474-1.548c-1.22 0-2.34.46-3.225 1.31l-.127.121a.747.747 0 0 1-1.048 0l-.127-.122c-.862-.827-2.102-1.309-3.352-1.309-1.33 0-2.58.568-3.475 1.55-1.368 1.43-1.477 3.688-.242 5.465 1.295 1.945 2.827 3.38 4.491 4.384 1.134.685 2.164 1.081 3.039 1.294h.24c.9-.217 1.924-.612 3.053-1.294zM12.193 17.704l.204.118c.817.468 1.582.714 3.338 1.154.329.083.504.127.695.177.25.066 1.272.385 1.703.524.278.075.538.219.769.42l3.437-1.984c1.023-.591 2.341-.327 3.002.604.363.512.497 1.158.365 1.771a2.22 2.22 0 0 1-1.055 1.458l-7.999 4.618a2.313 2.313 0 0 0-.127.08 1.936 1.936 0 0 1-.29.168c-.217.098-.368.13-.556.1a5.289 5.289 0 0 1-.577-.132l-6.465-1.835c-.212-.082-1.056-.282-1.179-.283-.056 0-.935.359-2.428 1.001a.71.71 0 0 1-.93-.365.58.58 0 0 1 .313-.759l2.81-1.169a.548.548 0 0 1 .155-.041c.094-.01.149 0 .369.06.065.017.134.038.22.064l.228.07c.119.037.207.063.295.087 5.748 1.592 5.748 1.592 6.877 1.907.303.023.517-.005.638-.075l7.999-4.618a.946.946 0 0 0 .289-1.364c-.277-.389-.852-.492-1.308-.229l-3.416 1.973c.076.326.074.657-.01.973a2.027 2.027 0 0 1-2.492 1.442l-5.818-1.583c-.637-.223-.952-.5-.747-1.011.127-.318.41-.416.738-.327l6.158 1.675c.4.108.811-.13.917-.532a.787.787 0 0 0-.539-.927 61.908 61.908 0 0 0-1.666-.512 40.725 40.725 0 0 0-.68-.174c-1.853-.464-2.725-.746-3.668-1.286-.2-.115-.357-.21-.691-.413-1.41-.86-1.986-1.087-3.004-1.017-1.174.078-2.415.538-3.945 1.47l-2.263 1.163a.675.675 0 0 1-.894-.267.627.627 0 0 1 .257-.86l2.284-1.172c1.666-1.014 3.087-1.53 4.469-1.622 1.345-.092 2.136.212 3.76 1.203.28.17.332.202.458.277z"/>
        </g>
    </g>
</svg>
