<svg xmlns="http://www.w3.org/2000/svg" width="26" height="20" viewBox="0 0 26 20">
    <g fill="none" fill-rule="evenodd">
        <path d="M-8-11h42v42H-8z"/>
        <path fill="#FDCF2F" fill-rule="nonzero" d="M9.093 2.235c-.58 0-.966-.388-.966-.97 0-.58.386-.968.966-.968h15.454c.58 0 .966.387.966.969 0 .581-.386.969-.966.969H9.093zm15.454 6.782c.58 0 .966.388.966.97 0 .58-.386.968-.966.968H9.093c-.58 0-.966-.387-.966-.969 0-.581.386-.969.966-.969h15.454zm0 8.72c.58 0 .966.388.966.97 0 .581-.386.969-.966.969H9.093c-.58 0-.966-.388-.966-.97 0-.58.386-.968.966-.968h15.454zM.593.492a.932.932 0 0 1 1.352 0c.193.193.387.387.387.775 0 .194-.194.581-.387.581 0 .194-.386.388-.58.388-.192 0-.579-.194-.772-.388C.4 1.653.4 1.46.4 1.266.4 1.072.4.684.593.49zm0 8.72a.931.931 0 0 1 1.352 0c.193.194.387.388.387.775 0 .194-.194.582-.387.582 0 .193-.386.387-.58.387-.192 0-.579-.194-.772-.387C.4 10.374.4 10.18.4 9.986c0-.194 0-.581.193-.775zm0 8.72a.932.932 0 0 1 1.352 0c.193.194.387.388.387.776 0 .193-.194.58-.387.58 0 .195-.386.388-.58.388-.192 0-.579-.193-.772-.387C.4 19.094.4 18.9.4 18.707c0-.194 0-.582.193-.776z"/>
    </g>
</svg>
