<svg xmlns="http://www.w3.org/2000/svg" width="26" height="26" viewBox="0 0 26 26">
    <path fill="#2ECC71" fill-rule="nonzero" d="M23.49 2.51A7.157 7.157 0 0 0 18.395.4c-1.924 0-3.733.75-5.094 2.11L7.906 7.905 2.51 13.302A7.158 7.158 0 0 0 .4 18.395c0 1.925.75 3.734 2.11 5.095a7.157 7.157 0 0 0 5.095 2.11c1.924 0 3.733-.75 5.094-2.11l5.395-5.395 5.396-5.396a7.157 7.157 0 0 0 2.11-5.094c0-1.925-.75-3.734-2.11-5.095zM11.68 22.1a5.464 5.464 0 0 1-3.89 1.611c-1.469 0-2.85-.572-3.889-1.611A5.464 5.464 0 0 1 2.29 18.21c0-1.47.572-2.85 1.611-3.89l4.47-4.47 7.779 7.778-4.47 4.471zm10.419-10.42l-4.47 4.471L9.85 8.372 14.32 3.9a5.464 5.464 0 0 1 3.89-1.611c1.469 0 2.85.572 3.889 1.611A5.464 5.464 0 0 1 23.71 7.79c0 1.47-.572 2.85-1.611 3.89z"/>
</svg>
