<svg xmlns="http://www.w3.org/2000/svg" width="26" height="16" viewBox="0 0 26 16">
    <g fill="none" fill-rule="evenodd">
        <path d="M-8-14h42v42H-8z"/>
        <path fill="#DE8DFF" fill-rule="nonzero" d="M25.31.283a.954.954 0 0 0-1.358 0L11.546 12.755c-.581.377-1.357.755-2.132.755-.775 0-1.55-.189-2.132-.755L2.048 7.653a.954.954 0 0 0-1.357 0 .898.898 0 0 0 0 1.322l5.234 5.102c.969.756 2.132 1.323 3.489 1.323 1.357 0 2.714-.567 3.49-1.323l12.405-12.47a.897.897 0 0 0 0-1.324z"/>
    </g>
</svg>
