<svg xmlns="http://www.w3.org/2000/svg" width="28" height="24" viewBox="0 0 28 24">
    <g fill="none" fill-rule="evenodd">
        <path d="M-7-9h42v42H-7z"/>
        <path fill="#9DDE24" fill-rule="nonzero" d="M25.952 3.667C24.322 1.875 22.15.8 19.614.8 17.441.8 15.63 1.517 14 2.771 12.37 1.517 10.378.8 8.386.8 6.032.8 3.678 1.875 2.048 3.667-.488 6.534-.67 10.835 1.505 14.061c4.527 6.989 10.322 8.78 11.952 9.139H14c.181 0 .362-.18.543 0 1.63-.358 7.425-2.15 11.953-9.14 2.173-3.404 1.992-7.705-.544-10.393zm-.905 9.319c-4.165 6.45-9.417 8.064-10.866 8.422h-.362c-1.449-.358-6.7-1.971-10.866-8.422-1.81-2.688-1.63-6.093.362-8.244 1.268-1.433 3.08-2.33 5.071-2.33 1.811 0 3.622.718 4.89 1.972l.18.18a.882.882 0 0 0 1.268 0l.181-.18c1.268-1.254 2.898-1.971 4.709-1.971 1.992 0 3.803.896 5.07 2.33 1.993 2.15 1.993 5.555.363 8.243z"/>
    </g>
</svg>
