<svg xmlns="http://www.w3.org/2000/svg" width="29" height="26" viewBox="0 0 29 26">
    <g fill="none" fill-rule="evenodd">
        <path d="M-7-7h42v42H-7z"/>
        <path fill="#4DA2FF" d="M11.761 17.516h-.601c-.201 0-.397-.004-.588-.013a7.257 7.257 0 0 1-.67-.069c-.128.146-.406.392-.834.739-.429.346-.935.71-1.518 1.093s-1.198.73-1.846 1.04c-.647.31-1.253.51-1.818.601H3.86l-.055.014a.589.589 0 0 1-.56-.178.658.658 0 0 1-.178-.465c0-.055.004-.1.013-.137a.534.534 0 0 1 .041-.109h-.027c.219-.365.524-.925.916-1.682.392-.756.588-1.453.588-2.091v-.055a7.77 7.77 0 0 1-1.969-1.422 8.008 8.008 0 0 1-1.394-1.86 8.903 8.903 0 0 1-.82-2.132A9.322 9.322 0 0 1 .14 8.575c0-1.185.296-2.297.889-3.336C1.62 4.2 2.437 3.298 3.476 2.532 4.515 1.766 5.727 1.16 7.113.714c1.385-.447 2.87-.67 4.457-.67 1.567 0 3.04.223 4.416.67 1.376.446 2.575 1.052 3.595 1.818 1.021.766 1.828 1.668 2.42 2.707a6.627 6.627 0 0 1 .889 3.336c.018 1.33-.255 2.548-.82 3.65a8.453 8.453 0 0 1-2.352 2.83c-1.002.784-2.187 1.39-3.555 1.819-1.367.428-2.834.642-4.402.642zm-2.57-1.886l.957.082c.42.054.802.082 1.148.082h.52c1.33 0 2.566-.178 3.705-.533 1.14-.356 2.124-.857 2.953-1.504a7.226 7.226 0 0 0 1.955-2.297 6.01 6.01 0 0 0 .711-2.885c0-.948-.25-1.832-.752-2.652-.501-.82-1.18-1.536-2.037-2.147-.857-.61-1.869-1.094-3.035-1.449a12.79 12.79 0 0 0-3.746-.533c-1.331 0-2.584.177-3.76.533-1.176.355-2.206.838-3.09 1.45-.884.61-1.577 1.325-2.078 2.146a4.996 4.996 0 0 0-.752 2.652c0 1.13.283 2.27.848 3.418.565 1.148 1.449 2.033 2.652 2.652l.957.492-.082 1.067-.055.478c-.036.32-.21.898-.52 1.737.493-.292.98-.634 1.464-1.026.483-.392.788-.67.916-.834l1.12-.93zm18.949 0c0 1.276-.31 2.401-.93 3.377-.62.975-1.577 1.79-2.87 2.447v.055c0 .565.109 1.22.327 1.968.22.748.42 1.276.602 1.586a.534.534 0 0 1 .055.219c0 .164-.055.3-.164.41a.556.556 0 0 1-.41.164h-.165c-.966-.164-1.941-.656-2.925-1.476-.985-.82-1.577-1.358-1.778-1.614-.219.019-.41.032-.574.041-.164.01-.337.014-.52.014h-.52c-.892 0-1.735-.077-2.528-.232a10.757 10.757 0 0 1-2.229-.684 9 9 0 0 1-3.39-2.53c.036-.036.514-.054 1.435-.054.92 0 1.28.01 1.08.027a7.73 7.73 0 0 0 2.488 1.3c.912.282 1.96.423 3.145.423h.533c.356 0 .624-.018.807-.055l.93-.136.505.683c.338.456.935.994 1.791 1.614-.073-.274-.127-.812-.164-1.614l-.054-1.203.847-.41c1.04-.529 1.787-1.144 2.242-1.846.456-.702.684-1.526.684-2.474 0-.766-.132-1.431-.396-1.996-.265-.566-.77-1.112-1.518-1.641a16.7 16.7 0 0 0 .26-.93c.082-.328.141-.647.177-.957 1.149.675 1.974 1.468 2.475 2.38.501.91.752 1.959.752 3.144z"/>
    </g>
</svg>
