<svg xmlns="http://www.w3.org/2000/svg" width="162" height="32" viewBox="0 0 162 32">
    <g fill="none" fill-rule="evenodd">
        <path fill="#73B6FF" d="M137.926 15.444c.089-2.027.856-3.72 2.34-5.164 1.583-1.543 3.43-2.294 5.648-2.294 2.239 0 4.084.761 5.642 2.326.421.424.779.868 1.084 1.332l-.007-.012a4.018 4.018 0 0 0 3.196 1.583 4.028 4.028 0 0 0 4.029-4.026c0-.603-.137-1.173-.374-1.686 0 0-.852-1.405-2.287-2.83-3.089-3.07-6.885-4.628-11.283-4.628-4.348 0-8.131 1.564-11.245 4.646-2.902 2.872-4.471 6.313-4.673 10.24l-.003.055a4.022 4.022 0 0 0 7.93.474l.003-.016zM61.993.045c-1.515 0-2.619 1-3.443 2.154-1.908 2.377-7.645 9.497-7.645 9.497l.069.076c1.065 1.521 2.767 2.434 4.765 2.434a5.861 5.861 0 0 0 3.98-1.557l4.545-5.688c.578-.857 1.313-1.403 1.494-2.373.016-.073.069-.419.069-.71A3.834 3.834 0 0 0 61.993.045z"/>
        <path fill="#4DA2FF" d="M114.48 4.152c0-.019.008-.2.008-.274a3.834 3.834 0 0 0-7.668 0v24.643c0 .92.38 1.692 1.144 2.317.249.204.516.362.793.5-.1-.43-.159-.877-.159-1.338a5.889 5.889 0 0 1 5.89-5.889h-.008V4.151z"/>
        <path fill="#FC6E50" d="M143.776 18.039h-1.322a2.128 2.128 0 1 1 0-4.255h1.331v-1.331a2.128 2.128 0 0 1 4.257 0v1.33h1.33a2.128 2.128 0 1 1 0 4.256h-1.33v1.33a2.128 2.128 0 0 1-4.257 0v-1.33h-.009z"/>
        <path fill="#73B6FF" d="M28.585.045c-1.594 0-2.96.973-3.538 2.357-.118.163-8.66 16.703-8.806 16.985.888 1.522 2.468 2.585 4.348 2.585a4.98 4.98 0 0 0 4.277-2.43s7.2-14.04 7.304-14.316c.163-.325.25-1.297.25-1.348A3.834 3.834 0 0 0 28.584.045zM73.818.045c1.594 0 2.96.973 3.538 2.357.117.163 8.66 16.703 8.806 16.985-.888 1.522-2.468 2.585-4.348 2.585a4.98 4.98 0 0 1-4.277-2.43s-7.201-14.04-7.305-14.316c-.162-.325-.248-1.297-.248-1.348A3.834 3.834 0 0 1 73.818.045z"/>
        <path fill="#4DA2FF" d="M81.814 21.972c2.08 0 3.795-1.298 4.609-3.082 0 0 8.362-16.491 8.608-16.777a3.822 3.822 0 0 1 3.39-2.068 3.834 3.834 0 0 1 3.834 3.833v.193a3.3 3.3 0 0 1-.275 1.3S90.024 28.685 89.99 28.775c-.626 1.668-2.006 3.002-3.87 3.002-1.87 0-3.21-1.357-3.874-3.016-.008-.021-4.71-9.22-4.71-9.22a4.98 4.98 0 0 0 4.278 2.43zM55.74 14.206c-2 0-3.701-.913-4.766-2.434l-.069-.076s-7.623-9.565-7.65-9.605C42.476.957 41.335.045 39.865.045a3.834 3.834 0 0 0-3.835 3.833c0 .02.05.61.063.672.178 1.005.775 1.456 1.545 2.444l9.29 11.519v9.497c0 .392.08.756.23 1.096a3.998 3.998 0 0 0 7.46.22c.206-.396.311-.833.311-1.311v-9.372l4.79-5.994a5.861 5.861 0 0 1-3.98 1.557z"/>
        <path fill="#73B6FF" d="M125.02 24.111c-.083 0-.164.007-.246.013-.042-.003-.083-.013-.125-.013h-10.162A5.889 5.889 0 0 0 108.598 30c0 .462.059.908.159 1.34l.006.017c.57.28 1.198.42 1.887.42h13.999c.052 0 .1-.009.15-.01.074.004.146.01.221.01a3.833 3.833 0 1 0 0-7.665z"/>
        <path fill="#4DA2FF" d="M159.484 7.503c.237.513.374 1.083.374 1.686a4.028 4.028 0 0 1-4.029 4.026 4.018 4.018 0 0 1-3.196-1.583c.827 1.252 1.237 2.654 1.237 4.25 0 2.208-.768 4.042-2.35 5.608-1.583 1.566-3.417 2.328-5.606 2.328-2.216 0-4.063-.762-5.646-2.328-1.581-1.565-2.35-3.412-2.35-5.645 0-.156.013-.305.02-.457a4.023 4.023 0 0 1-7.945-.402c-.012.271-.02.544-.02.82 0 4.368 1.58 8.159 4.693 11.268 3.115 3.109 6.898 4.685 11.248 4.685 4.321 0 8.097-1.563 11.224-4.644 3.128-3.084 4.715-6.863 4.715-11.232 0-3.109-.798-5.913-2.37-8.38zM20.59 21.972c-2.08 0-3.796-1.298-4.61-3.082 0 0-8.362-16.491-8.608-16.777A3.822 3.822 0 0 0 3.982.045 3.834 3.834 0 0 0 .146 3.878v.193c0 .434.092.867.276 1.3 0 0 11.956 23.314 11.99 23.404.625 1.668 2.006 3.002 3.87 3.002 1.87 0 3.21-1.357 3.874-3.016.008-.021 4.709-9.22 4.709-9.22a4.98 4.98 0 0 1-4.277 2.43z"/>
    </g>
</svg>
