<svg xmlns="http://www.w3.org/2000/svg" width="20" height="32" viewBox="0 0 20 32">
  <path fill="#FFF" d="M10.0002008,32 C4.4862553,32 0,27.5132679 0,21.9986443 L0,10.0017573 C0,4.48673211 4.4858537,0 10.0002008,0 C15.5141463,0 20,4.48673211 20,10.0017573 L20,21.9986443 C20,27.5136696 15.5141463,32 10.0002008,32 Z M10.0002008,2.00838501 C5.59346198,2.00838501 2.00799181,5.5941556 2.00799181,10.0017573 L2.00799181,21.9986443 C2.00799181,26.4062461 5.59346198,29.991615 10.0002008,29.991615 C14.4069396,29.991615 17.9920082,26.4058444 17.9920082,21.9986443 L17.9920082,10.0017573 C17.9920082,5.5941556 14.4069396,2.00838501 10.0002008,2.00838501 Z M10.1218851,13.6915623 C8.74118994,13.6915623 7.61832092,12.5684734 7.61832092,11.1879095 L7.61832092,8.18858735 C7.61832092,6.8080235 8.74118994,5.6849346 10.1218851,5.6849346 C11.5021787,5.6849346 12.6254493,6.8080235 12.6254493,8.18858735 L12.6254493,11.1879095 C12.6254493,12.5684734 11.5021787,13.6915623 10.1218851,13.6915623 Z M10.1218851,7.69331961 C9.84879822,7.69331961 9.62631272,7.91544699 9.62631272,8.18858735 L9.62631272,11.1879095 C9.62631272,11.4610499 9.84879822,11.6831773 10.1218851,11.6831773 C10.394972,11.6831773 10.6174575,11.4610499 10.6174575,11.1879095 L10.6174575,8.18858735 C10.6174575,7.91544699 10.394972,7.69331961 10.1218851,7.69331961 Z"/>
</svg>
