<svg xmlns="http://www.w3.org/2000/svg" width="177" height="60" viewBox="0 0 177 60">
  <g fill="none" fill-rule="evenodd">
    <rect width="177" height="60" fill="#000" rx="7.2"/>
    <g fill="#FFF" transform="translate(14.699 10.56)">
      <path d="M24.0496382 18.0665076C24.0110732 13.774663 27.5590522 11.6866666 27.7212911 11.5894576 25.7119222 8.65587588 22.5974669 8.25505515 21.5030191 8.22309602 18.887249 7.94744853 16.3499387 9.79042494 15.0174519 9.79042494 13.6583685 9.79042494 11.6064451 8.24972863 9.3949425 8.29500406 6.54911229 8.33894786 3.88679824 9.98883787 2.42664798 12.5508947-.586740448 17.7748805 1.66066752 25.4517295 4.54772236 29.6743294 5.9919147 31.7436829 7.67946541 34.0513983 9.88830839 33.9701689 12.0492776 33.8822813 12.8564827 32.5905998 15.4642738 32.5905998 18.0481281 32.5905998 18.8061296 33.9701689 21.0588568 33.9169037 23.3780755 33.8822813 24.8382257 31.840892 26.2318846 29.7528956 27.9008178 27.3852568 28.5710507 25.0482455 28.5976472 24.9283988 28.5444541 24.9110876 24.0948523 23.2105956 24.0496382 18.0665076M19.7941912 5.4453151C20.9564602 3.98984313 21.7516968 2.00970879 21.5309455.000278587528 19.8487141.0748498873 17.7449275 1.16545515 16.5334549 2.58896799 15.4616142 3.84336379 14.5041386 5.89940105 14.7514864 7.83292832 16.6411709 7.97408114 18.5813888 6.87814936 19.7941912 5.4453151"/>
    </g>
    <g fill="#FFF" transform="translate(54.125 25.28)">
      <path d="M15.9232407 18.9532153L12.9032031 18.9532153 11.2488981 13.7478723 5.49872528 13.7478723 3.92288005 18.9532153.982632115 18.9532153 6.68094166 1.23187859 10.1996644 1.23187859 15.9232407 18.9532153 15.9232407 18.9532153zM10.7502129 11.5639985L9.25415728 6.93791465C9.09590785 6.46385424 8.79802655 5.35061127 8.36184323 3.59818573L8.30865015 3.59818573C8.13311296 4.3518885 7.85251942 5.46513148 7.46819936 6.93791465L5.99741048 11.5639985 10.7502129 11.5639985 10.7502129 11.5639985zM30.5486802 12.4069205C30.5486802 14.5801412 29.9595668 16.2979444 28.78001 17.5589983 27.7241272 18.6815627 26.4115878 19.2421791 24.8463812 19.2421791 23.1561708 19.2421791 21.9407087 18.6389506 21.2026547 17.4284986L21.2026547 24.1332574 18.3674631 24.1332574 18.3674631 10.3748526C18.3674631 9.00993148 18.3315577 7.61038798 18.2624067 6.17489046L20.7558327 6.17489046 20.9140822 8.20163186 20.9672752 8.20163186C21.9127824 6.67425184 23.3476659 5.91122765 25.2732557 5.91122765 26.7786201 5.91122765 28.0353068 6.50646642 29.0406562 7.69827558 30.0446757 8.89274801 30.5486802 10.4614086 30.5486802 12.4069205L30.5486802 12.4069205zM27.6602955 12.5107877C27.6602955 11.2670449 27.3810318 10.2416896 26.8198447 9.43472156 26.2067944 8.59446281 25.3836314 8.17233599 24.3516855 8.17233599 23.6521964 8.17233599 23.016539 8.40670293 22.4487027 8.87011029 21.8795367 9.33484929 21.5071851 9.94340436 21.3329777 10.6984388 21.2452091 11.0486576 21.2013248 11.3349581 21.2013248 11.5613352L21.2013248 13.6946071C21.2013248 14.6214218 21.4859078 15.4057521 22.0550739 16.0475979 22.6242399 16.6867805 23.3636239 17.0077034 24.2732257 17.0077034 25.3410769 17.0077034 26.1722189 16.5935663 26.7666516 15.7719504 27.3624142 14.9476712 27.6602955 13.8610609 27.6602955 12.5107877L27.6602955 12.5107877zM45.225983 12.4069205C45.225983 14.5801412 44.6368695 16.2979444 43.4573128 17.5589983 42.4001002 18.6815627 41.0888906 19.2421791 39.5223541 19.2421791 37.8334736 19.2421791 36.6180115 18.6389506 35.8786276 17.4284986L35.8786276 24.1332574 33.043436 24.1332574 33.043436 10.3748526C33.043436 9.00993148 33.0075307 7.61038798 32.9383797 6.17489046L35.4318057 6.17489046 35.5900551 8.20163186 35.6432482 8.20163186C36.5874255 6.67425184 38.022309 5.91122765 39.9492287 5.91122765 41.4532632 5.91122765 42.7112797 6.50646642 43.7179589 7.69827558 44.7206486 8.89274801 45.225983 10.4614086 45.225983 12.4069205L45.225983 12.4069205zM42.3362685 12.5107877C42.3362685 11.2670449 42.0556749 10.2416896 41.4944879 9.43472156 40.8827674 8.59446281 40.0609341 8.17233599 39.0289882 8.17233599 38.3294991 8.17233599 37.6938417 8.40670293 37.1233459 8.87011029 36.5555097 9.33484929 36.183158 9.94340436 36.0089507 10.6984388 35.9225119 11.0486576 35.875968 11.3349581 35.875968 11.5613352L35.875968 13.6946071C35.875968 14.6214218 36.1618808 15.4057521 36.7283872 16.0475979 37.2975532 16.6854488 38.0369371 17.0077034 38.9491986 17.0077034 40.0183797 17.0077034 40.8495217 16.5935663 41.4426246 15.7719504 42.0383872 14.9476712 42.3362685 13.8610609 42.3362685 12.5107877L42.3362685 12.5107877zM61.6360506 13.9835708C61.6360506 15.4909764 61.1107689 16.717408 60.062865 17.6641971 58.9112347 18.6975423 57.3034736 19.2155465 55.2422414 19.2155465 53.3379289 19.2155465 51.8112873 18.8480165 50.6596569 18.1116249L51.3152617 15.7453178C52.5586501 16.4817094 53.9243827 16.850571 55.4111295 16.850571 56.4803106 16.850571 57.3114526 16.6082143 57.9045555 16.1274957 58.5003181 15.6441139 58.7995292 15.0009364 58.7995292 14.1966317 58.7995292 13.4762197 58.5521813 12.8716595 58.0628049 12.3802879 57.5720987 11.8915796 56.7609041 11.4334987 55.622572 11.0153668 52.5240746 9.85818002 50.9734961 8.16434621 50.9734961 5.93919189 50.9734961 4.48505154 51.5213849 3.294574 52.6131731 2.36376439 53.706291 1.4342864 55.1558027.969547408 56.9590483.969547408 58.5694691.969547408 59.9112647 1.25052141 60.9764563 1.81113779L60.2649988 4.12551134C59.262309 3.58220616 58.1306261 3.31055357 56.8646306 3.31055357 55.8646006 3.31055357 55.0786727 3.55690518 54.5188154 4.04694515 54.0467268 4.48505154 53.8060281 5.01903531 53.8060281 5.65289136 53.8060281 6.3519973 54.0786426 6.93258813 54.622542 7.38667408 55.0933008 7.80746927 55.9523692 8.26421848 57.1944278 8.75425845 58.7184097 9.36947168 59.8367944 10.0858888 60.5549011 10.9088364 61.2769973 11.7317839 61.6360506 12.7584709 61.6360506 13.9835708M71.0339394 8.30549902L67.9088455 8.30549902 67.9088455 14.5095648C67.9088455 16.0875468 68.4593939 16.8745403 69.5631505 16.8745403 70.0698147 16.8745403 70.4900401 16.8319282 70.8224969 16.7427089L70.9009567 18.8986185C70.3424293 19.1076844 69.6070348 19.2128832 68.697433 19.2128832 67.5763887 19.2128832 66.7026922 18.8693226 66.0696945 18.1861962 65.4393564 17.5017382 65.1241873 16.3552045 65.1241873 14.7412685L65.1241873 8.3001725 63.2637591 8.3001725 63.2637591 6.16956394 65.1241873 6.16956394 65.1241873 3.82988941 67.9088455 2.98829902 67.9088455 6.16956394 71.0339394 6.16956394 71.0339394 8.30549902M85.1061708 12.4588541C85.1061708 14.4230089 84.5463136 16.0356132 83.4252692 17.2966672 82.2536915 18.5936751 80.695134 19.2421791 78.7522565 19.2421791 76.8772001 19.2421791 75.3864638 18.6203077 74.2747283 17.376565 73.1629927 16.1328222 72.607125 14.5641617 72.607125 12.671915 72.607125 10.6917806 73.1829402 9.06985485 74.3265915 7.8088009 75.4729026 6.54774696 77.0181618 5.91522254 78.9610393 5.91522254 80.8347658 5.91522254 82.3374706 6.53975718 83.4771325 7.78216829 84.5649311 8.98995702 85.1061708 10.5466329 85.1061708 12.4588541L85.1061708 12.4588541zM82.1672527 12.524104C82.1672527 11.3536009 81.9145855 10.3495516 81.4079214 9.50929286 80.8134886 8.49459053 79.9610694 7.988571 78.8599725 7.988571 77.7256299 7.988571 76.8519334 8.49459053 76.2601603 9.50929286 75.7508365 10.3495516 75.4994991 11.3709121 75.4994991 12.5773692 75.4994991 13.7492039 75.7508365 14.7559165 76.2601603 15.5921803 76.8732106 16.6082143 77.7282895 17.1155654 78.8373654 17.1155654 79.9198447 17.1155654 80.7696043 16.5962296 81.3853143 15.568211 81.9052767 14.7079778 82.1672527 13.6972703 82.1672527 12.524104L82.1672527 12.524104zM94.3258628 8.67169737C94.0452692 8.61976379 93.7447283 8.59446281 93.4322189 8.59446281 92.4348485 8.59446281 91.6635487 8.96865094 91.1209792 9.72501698 90.6488906 10.3908322 90.4135112 11.2324225 90.4135112 12.2484565L90.4135112 18.9532153 87.5783196 18.9532153 87.5783196 10.1990774C87.5783196 8.72762585 87.5503932 7.38401082 87.4958703 6.17622209L89.9653594 6.17622209 90.0690859 8.62109542 90.1475457 8.62109542C90.4480867 7.78083666 90.9188455 7.10303681 91.5651415 6.59701728 92.1981393 6.13893644 92.8790108 5.91122765 93.6144052 5.91122765 93.8763812 5.91122765 94.1130904 5.9312021 94.3232031 5.96316123L94.3258628 8.67169737M107.005765 11.9594927C107.005765 12.4681755 106.972519 12.8969605 106.902039 13.2471793L98.3977936 13.2471793C98.4283797 14.5095648 98.8419559 15.4763285 99.6305435 16.1421437 100.34732 16.7360508 101.27554 17.034336 102.412542 17.034336 103.671888 17.034336 104.820859 16.8345914 105.854135 16.4297758L106.298297 18.4005887C105.090814 18.9265827 103.663909 19.1902455 102.020243 19.1902455 100.04146 19.1902455 98.4882219 18.6069914 97.3578688 17.4431465 96.2315051 16.2779699 95.6649988 14.710641 95.6649988 12.7504811 95.6649988 10.8249437 96.1889507 9.22032908 97.2421738 7.94063231 98.3432707 6.57437956 99.8313474 5.89125319 101.703744 5.89125319 103.542895 5.89125319 104.935224 6.57437956 105.879401 7.94063231 106.629424 9.02324778 107.005765 10.3655312 107.005765 11.9594927L107.005765 11.9594927zM104.302226 11.2231011C104.322174 10.3801791 104.135998 9.6557722 103.751678 9.04055898 103.260972 8.24957055 102.50563 7.85540796 101.493631 7.85540796 100.565412 7.85540796 99.8114 8.24024914 99.2369146 9.01259474 98.764826 9.62647633 98.4842324 10.3655312 98.3977936 11.2204379L104.302226 11.2231011 104.302226 11.2231011z"/>
    </g>
    <g fill="#FFF" transform="translate(55.204 10.04)">
      <path d="M8.30461295 10.1293232L6.81919597 10.1293232 6.00667155 7.57126131 3.18078875 7.57126131 2.4054995 10.1293232.959977333 10.1293232 3.76059341 1.41912908 5.48936877 1.41912908 8.30461295 10.1293232 8.30461295 10.1293232zM5.76198334 6.49796724L5.0265889 4.2235426C4.94945893 3.99050729 4.80716742 3.44853373 4.58774593 2.582974L4.56114938 2.582974C4.47072114 2.95716213 4.3417279 3.50046732 4.14757313 4.2235426L3.42547696 6.49796724 5.76198334 6.49796724 5.76198334 6.49796724zM15.307483 3.84935447L12.9324116 10.1293232 11.5773177 10.1293232 9.27937628 3.84935447 10.7767617 3.84935447 11.8486024 7.17044057C12.0294589 7.72573043 12.1837189 8.25571931 12.2994138 8.75907558L12.3379788 8.75907558C12.4417054 8.30765289 12.5959653 7.77766401 12.7887903 7.17044057L13.8473327 3.84935447 15.307483 3.84935447M20.363486 10.1293232L20.2597595 9.40624793 20.2211945 9.40624793C19.7956498 9.9881704 19.1759503 10.2718077 18.3886926 10.2718077 17.2663184 10.2718077 16.4657625 9.48348249 16.4657625 8.42350473 16.4657625 6.873487 17.8075581 6.07184553 20.1307662 6.07184553L20.1307662 5.95599369C20.1307662 5.12905124 19.6919232 4.7149142 18.8275356 4.7149142 18.2078361 4.7149142 17.6652666 4.87071495 17.1891885 5.18098482L16.9059353 4.26349151C17.4870697 3.90128805 18.2091659 3.72018633 19.0615851 3.72018633 20.6999323 3.72018633 21.5270848 4.58574606 21.5270848 6.31819715L21.5270848 8.63123907C21.5270848 9.26509512 21.5536813 9.75646672 21.617513 10.1306548L20.363486 10.1293232 20.363486 10.1293232zM20.1693312 7.00132352C18.6200825 7.00132352 17.8461231 7.37684328 17.8461231 8.26770398 17.8461231 8.92686101 18.2464011 9.24911555 18.800939 9.24911555 19.5110667 9.24911555 20.1693312 8.707142 20.1693312 7.97075041L20.1693312 7.00132352 20.1693312 7.00132352zM24.6309015 2.81467769C24.1667918 2.81467769 23.8050788 2.45247423 23.8050788 1.97441893 23.8050788 1.49636364 24.1787602 1.14747648 24.657498 1.14747648 25.134906 1.14747648 25.5218857 1.49636364 25.5085874 1.97441893 25.5085874 2.47910684 25.1482042 2.81467769 24.6309015 2.81467769L24.6309015 2.81467769zM23.9606685 3.84935447L25.3543274 3.84935447 25.3543274 10.1293232 23.9606685 10.1293232 23.9606685 3.84935447z"/>
      <polygon points="27.83 .968 29.224 .968 29.224 10.129 27.83 10.129"/>
      <path d="M35.1471749 10.1293232L35.0421186 9.40624793 35.0048834 9.40624793C34.5793387 9.9881704 33.9596392 10.2718077 33.1723815 10.2718077 32.0500074 10.2718077 31.2494514 9.48348249 31.2494514 8.42350473 31.2494514 6.873487 32.5912471 6.07184553 34.9144552 6.07184553L34.9144552 5.95599369C34.9144552 5.12905124 34.4756122 4.7149142 33.6112245 4.7149142 32.991525 4.7149142 32.4489555 4.87071495 31.9728774 5.18098482L31.6882944 4.26215988C32.2694289 3.89995642 32.991525 3.7188547 33.8439443 3.7188547 35.4822914 3.7188547 36.3107737 4.58441443 36.3107737 6.31686551L36.3107737 8.62990744C36.3107737 9.26376349 36.3373703 9.75513509 36.3985423 10.1293232L35.1471749 10.1293232 35.1471749 10.1293232zM34.9530202 7.00132352C33.4037715 7.00132352 32.629812 7.37684328 32.629812 8.26770398 32.629812 8.92686101 33.03009 9.24911555 33.584628 9.24911555 34.2947557 9.24911555 34.9530202 8.707142 34.9530202 7.97075041L34.9530202 7.00132352 34.9530202 7.00132352zM41.9558902 10.2718077C41.0662358 10.2718077 40.4093012 9.8962879 39.9824266 9.15989632L39.9558301 9.15989632 39.8760404 10.1293232 38.6898346 10.1293232C38.7270697 9.62596694 38.740368 9.05602915 38.740368 8.43682104L38.740368.967706386 40.1366866.967706386 40.1366866 4.76817941 40.1619533 4.76817941C40.5755295 4.07040511 41.2457625 3.72151796 42.1620134 3.72151796 43.6726971 3.72151796 44.7312395 5.01453103 44.7312395 6.90011961 44.7312395 8.84962645 43.5556723 10.2718077 41.9558902 10.2718077L41.9558902 10.2718077zM41.672637 4.81744974C40.8707512 4.81744974 40.1366866 5.51522404 40.1366866 6.48465094L40.1366866 7.58324598C40.1366866 8.44880571 40.7962809 9.15989632 41.6473703 9.15989632 42.6912846 9.15989632 43.3136437 8.30765289 43.3136437 6.95072156 43.3123139 5.6843411 42.6660179 4.81744974 41.672637 4.81744974L41.672637 4.81744974z"/>
      <polygon points="46.794 .968 48.186 .968 48.186 10.129 46.794 10.129"/>
      <path d="M55.7714649 7.32490969L51.5878286 7.32490969C51.6157549 8.5140556 52.400353 9.1851973 53.5612921 9.1851973 54.1823214 9.1851973 54.7501576 9.08133013 55.2528323 8.88824373L55.4695942 9.85767062C54.8764912 10.1160069 54.1796618 10.2451751 53.3671374 10.2451751 51.4043124 10.2451751 50.2433733 9.00409557 50.2433733 7.07988971 50.2433733 5.15435222 51.4322388 3.70687002 53.2115476 3.70687002 54.8099999 3.70687002 55.8193387 4.89601593 55.8193387 6.69238527 55.8233282 6.93740526 55.8113598 7.15712427 55.7714649 7.32490969L55.7714649 7.32490969zM54.4948308 6.33018182C54.4948308 5.36075492 54.0027948 4.67629692 53.1118105 4.67629692 52.3112546 4.67629692 51.6809165 5.37407122 51.5878286 6.33018182L54.4948308 6.33018182 54.4948308 6.33018182zM64.2185273 10.2718077C62.3860254 10.2718077 61.1984897 8.90156003 61.1984897 7.04127243 61.1984897 5.10241863 62.4112921 3.72018633 64.3235836 3.72018633 66.1281592 3.72018633 67.3436212 5.02518407 67.3436212 6.93873689 67.3436212 8.90156003 66.090924 10.2718077 64.2185273 10.2718077L64.2185273 10.2718077zM64.2717204 4.74021518C63.2650412 4.74021518 62.620075 5.68300947 62.620075 7.00132352 62.620075 8.29433659 63.2783395 9.23713088 64.2584221 9.23713088 65.2385048 9.23713088 65.8967692 8.2290867 65.8967692 6.97469091 65.8967692 5.69632577 65.251803 4.74021518 64.2717204 4.74021518L64.2717204 4.74021518zM74.8358676 10.1293232L73.4448684 10.1293232 73.4448684 6.52326822C73.4448684 5.4126885 73.0179939 4.85606702 72.1788729 4.85606702 71.3530502 4.85606702 70.7838842 5.56715763 70.7838842 6.39410008L70.7838842 10.1293232 69.3928849 10.1293232 69.3928849 5.64439219C69.3928849 5.08910233 69.376927 4.49386356 69.3396918 3.84802284L70.5657925 3.84802284 70.630954 4.81744974 70.6708489 4.81744974C71.0418706 4.14630804 71.8051915 3.7188547 72.6576107 3.7188547 73.97148 3.7188547 74.8358676 4.72689887 74.8358676 6.36746747L74.8358676 10.1293232M83.9544927 4.89601593L82.421202 4.89601593 82.421202 7.94544944C82.421202 8.72178993 82.6911569 9.10929437 83.2323966 9.10929437 83.4770848 9.10929437 83.6858676 9.08266176 83.852096 9.04404448L83.890661 10.1040222C83.6193763 10.2078894 83.2563335 10.259823 82.8081817 10.259823 81.7084146 10.259823 81.0541396 9.65259955 81.0541396 8.06263291L81.0541396 4.89601593 80.1405483 4.89601593 80.1405483 3.84935447 81.0541396 3.84935447 81.0541396 2.69882585 82.421202 2.28468881 82.421202 3.84802284 83.9544927 3.84802284 83.9544927 4.89601593M91.3350337 10.1293232L89.940045 10.1293232 89.940045 6.54990083C89.940045 5.42600481 89.5131704 4.85739865 88.6753793 4.85739865 87.9532831 4.85739865 87.2830502 5.34877025 87.2830502 6.34349812L87.2830502 10.1293232 85.8880615 10.1293232 85.8880615.967706386 87.2830502.967706386 87.2830502 4.74021518 87.3096468 4.74021518C87.7471599 4.05575718 88.3814875 3.7188547 89.1940119 3.7188547 90.5225093 3.7188547 91.3350337 4.75219985 91.3350337 6.39410008L91.3350337 10.1293232M98.4562583 7.32490969L94.2739518 7.32490969C94.3005483 8.5140556 95.0851464 9.1851973 96.2474153 9.1851973 96.8697745 9.1851973 97.4362809 9.08133013 97.9362959 8.88824373L98.1543876 9.85767062C97.5626144 10.1160069 96.8644552 10.2451751 96.0506009 10.2451751 94.0891058 10.2451751 92.9281667 9.00409557 92.9281667 7.07988971 92.9281667 5.15435222 94.1157024 3.70687002 95.8950111 3.70687002 97.4947933 3.70687002 98.5028023 4.89601593 98.5028023 6.69238527 98.5081216 6.93740526 98.4948233 7.15712427 98.4562583 7.32490969L98.4562583 7.32490969zM97.1782944 6.33018182C97.1782944 5.36075492 96.688918 4.67629692 95.7979338 4.67629692 94.9973778 4.67629692 94.3657099 5.37407122 94.2739518 6.33018182L97.1782944 6.33018182 97.1782944 6.33018182z"/>
    </g>
  </g>
</svg>
