<svg xmlns="http://www.w3.org/2000/svg" width="168" height="39" viewBox="0 0 168 39">
  <g fill="none" fill-rule="evenodd" opacity=".8" transform="translate(-2 -2)">
    <g transform="translate(0 3)">
      <polygon points="0 0 34 0 34 34 0 34"/>
      <path fill="#FFF" fill-rule="nonzero" d="M8.5,25.5 C8.5,26.2791667 9.1375,26.9166667 9.91666667,26.9166667 L11.3333333,26.9166667 L11.3333333,31.875 C11.3333333,33.0508333 12.2825,34 13.4583333,34 C14.6341667,34 15.5833333,33.0508333 15.5833333,31.875 L15.5833333,26.9166667 L18.4166667,26.9166667 L18.4166667,31.875 C18.4166667,33.0508333 19.3658333,34 20.5416667,34 C21.7175,34 22.6666667,33.0508333 22.6666667,31.875 L22.6666667,26.9166667 L24.0833333,26.9166667 C24.8625,26.9166667 25.5,26.2791667 25.5,25.5 L25.5,11.3333333 L8.5,11.3333333 L8.5,25.5 Z M4.95833333,11.3333333 C3.7825,11.3333333 2.83333333,12.2825 2.83333333,13.4583333 L2.83333333,23.375 C2.83333333,24.5508333 3.7825,25.5 4.95833333,25.5 C6.13416667,25.5 7.08333333,24.5508333 7.08333333,23.375 L7.08333333,13.4583333 C7.08333333,12.2825 6.13416667,11.3333333 4.95833333,11.3333333 Z M29.0416667,11.3333333 C27.8658333,11.3333333 26.9166667,12.2825 26.9166667,13.4583333 L26.9166667,23.375 C26.9166667,24.5508333 27.8658333,25.5 29.0416667,25.5 C30.2175,25.5 31.1666667,24.5508333 31.1666667,23.375 L31.1666667,13.4583333 C31.1666667,12.2825 30.2175,11.3333333 29.0416667,11.3333333 Z M22.0008333,3.06 L23.8425,1.21833333 C24.1258333,0.935 24.1258333,0.495833333 23.8425,0.2125 C23.5591667,-0.0708333333 23.12,-0.0708333333 22.8366667,0.2125 L20.74,2.30916667 C19.6208333,1.7425 18.3458333,1.41666667 17,1.41666667 C15.64,1.41666667 14.365,1.7425 13.2316667,2.30916667 L11.1208333,0.2125 C10.8375,-0.0708333333 10.3983333,-0.0708333333 10.115,0.2125 C9.83166667,0.495833333 9.83166667,0.935 10.115,1.21833333 L11.9708333,3.07416667 C9.87416667,4.61833333 8.5,7.0975 8.5,9.91666667 L25.5,9.91666667 C25.5,7.0975 24.1258333,4.60416667 22.0008333,3.06 Z M14.1666667,7.08333333 L12.75,7.08333333 L12.75,5.66666667 L14.1666667,5.66666667 L14.1666667,7.08333333 Z M21.25,7.08333333 L19.8333333,7.08333333 L19.8333333,5.66666667 L21.25,5.66666667 L21.25,7.08333333 Z"/>
    </g>
    <text fill="#FFF" font-family="Roboto-Medium, Roboto" font-size="12" font-weight="400">
      <tspan x="42" y="11">Coming soon on the</tspan>
    </text>
    <text fill="#FFF" font-family="Roboto-Medium, Roboto" font-size="24" font-weight="400">
      <tspan x="42" y="35">Google Play</tspan>
    </text>
  </g>
</svg>
