<svg xmlns="http://www.w3.org/2000/svg" width="24" height="24" viewBox="0 0 24 24">
  <g fill="none" fill-rule="evenodd">
    <rect width="24" height="24"/>
    <path fill="#FFF" fill-rule="nonzero" d="M12.6826479,22 L3.10384667,22 C2.49403042,22 2,21.5056633 2,20.8960846 L2,3.10383792 C2,2.49410417 2.49410792,2 3.10384667,2 L20.8962312,2 C21.5058146,2 22,2.49410417 22,3.10383792 L22,20.8960846 C22,21.5057408 21.5057371,22 20.8962312,22 L15.7997104,22 L15.7997104,14.2548979 L18.3993837,14.2548979 L18.7886479,11.2364942 L15.7997104,11.2364942 L15.7997104,9.30943375 C15.7997104,8.43553625 16.04238,7.84000417 17.2955375,7.84000417 L18.8938796,7.83930542 L18.8938796,5.13962125 C18.6174525,5.10283667 17.66866,5.02065417 16.5648133,5.02065417 C14.2603475,5.02065417 12.6826479,6.4273025 12.6826479,9.01050375 L12.6826479,11.2364942 L10.0763008,11.2364942 L10.0763008,14.2548979 L12.6826479,14.2548979 L12.6826479,22 Z"/>
  </g>
</svg>
