<svg xmlns="http://www.w3.org/2000/svg" width="24" height="24" viewBox="0 0 24 24">
  <g fill="none" fill-rule="evenodd">
    <rect width="24" height="24"/>
    <path fill="#FFF" fill-rule="nonzero" d="M22.6501046,5.0939582 C22.161299,5.30715795 21.653881,5.47535415 21.1332143,5.59712228 C21.7069292,5.06087821 22.1382882,4.39015104 22.3816451,3.64149859 C22.4511066,3.42777125 22.2150982,3.24295592 22.0188894,3.35739053 C21.2945582,3.77999138 20.5143359,4.09702116 19.6998387,4.2997746 C19.6525834,4.31153989 19.6038262,4.31750168 19.5549081,4.31750168 C19.4065446,4.31750168 19.2623113,4.26331802 19.1488664,4.16497495 C18.2822864,3.41373731 17.1677367,3 16.0105983,3 C15.509885,3 15.0043443,3.07676457 14.5079757,3.22818336 C12.9700591,3.69737054 11.7834196,4.94517737 11.4111164,6.48468959 C11.2714423,7.06213856 11.2336273,7.64011513 11.2986369,8.20252775 C11.3060926,8.26715772 11.2750361,8.3122668 11.2558872,8.33342322 C11.222256,8.37051291 11.1745716,8.39177485 11.1250635,8.39177485 C11.1195387,8.39177485 11.1138531,8.39151105 11.108221,8.39098346 C7.74177576,8.08334481 4.70606406,6.48806617 2.56026495,3.8990688 C2.45084287,3.76701263 2.24100995,3.78320969 2.15379411,3.93035498 C1.73359188,4.63943806 1.51152943,5.45045182 1.51152943,6.27571056 C1.51152943,7.54045308 2.02811964,8.73233521 2.92543431,9.60122577 C2.54808906,9.5132235 2.18286606,9.37462519 1.84360398,9.18928227 C1.67947087,9.0995917 1.47752277,9.21487046 1.47521632,9.39952751 C1.45172276,11.2783866 2.57008075,12.9502188 4.24541857,13.7030392 C4.2116801,13.7038306 4.17794162,13.7041999 4.14414951,13.7041999 C3.87858642,13.7041999 3.60969776,13.678981 3.34504652,13.6292292 C3.16020903,13.5945136 3.00492623,13.7669833 3.06231918,13.9432517 C3.60610399,15.6131318 5.06785421,16.8440029 6.81710557,17.1234682 C5.36533207,18.0820493 3.67470734,18.587693 1.9151038,18.587693 L1.36654518,18.5873765 C1.19753098,18.5873765 1.05458499,18.6957438 1.01151345,18.8567647 C0.969085579,19.0153588 1.04723654,19.1826581 1.19136258,19.2651206 C3.17415498,20.4001284 5.43581276,21 7.73281816,21 C9.74344883,21 11.6242212,20.6075246 13.3229453,19.8335478 C14.8802253,19.1239899 16.2563688,18.1096951 17.4131318,16.8188368 C18.4907247,15.6163501 19.333382,14.2282039 19.9176101,12.6930179 C20.4745363,11.2296372 20.7689031,9.66817714 20.7689031,8.17741439 L20.7689031,8.10640057 C20.7688495,7.86703227 20.8789152,7.64180343 21.0709402,7.48848531 C21.7996162,6.90655181 22.4341569,6.22152691 22.9568619,5.45245667 C23.0948732,5.24938667 22.8772091,4.9948765 22.6501046,5.0939582 Z"/>
  </g>
</svg>
