<svg xmlns="http://www.w3.org/2000/svg" width="163" height="32" viewBox="0 0 163 32">
    <path fill="#FFF" fill-rule="evenodd" d="M144.779 18.146h-1.333a2.146 2.146 0 1 1 0-4.291h1.342v-1.342a2.145 2.145 0 1 1 4.29 0v1.342h1.342a2.145 2.145 0 0 1 0 4.29h-1.342v1.343a2.145 2.145 0 0 1-4.29 0v-1.342h-.009zm-12.728-.614a4.056 4.056 0 0 0 6.844-2.059c-.009.153-.021.303-.021.46 0 2.252.774 4.115 2.368 5.693 1.596 1.58 3.458 2.348 5.691 2.348 2.207 0 4.056-.769 5.652-2.348 1.594-1.58 2.369-3.429 2.369-5.654 0-1.609-.413-3.022-1.245-4.283l.004.008a8.62 8.62 0 0 0-1.093-1.343c-1.57-1.578-3.43-2.346-5.687-2.346-2.235 0-4.097.757-5.694 2.313-1.494 1.457-2.268 3.164-2.357 5.208l-.003.016a4.056 4.056 0 0 1-6.828 1.987zm-1.165-2.465l.002-.055c.203-3.96 1.785-7.43 4.71-10.327C138.738 1.577 142.551 0 146.933 0c4.434 0 8.26 1.57 11.374 4.667a16.843 16.843 0 0 1 2.305 2.853c1.584 2.489 2.388 5.317 2.388 8.452 0 4.406-1.6 8.217-4.753 11.327-3.151 3.107-6.958 4.683-11.314 4.683-4.384 0-8.198-1.59-11.337-4.725-3.139-3.135-4.73-6.958-4.73-11.363 0-.278.007-.553.02-.827zm-15.63 9.203h10.242c.043 0 .084.01.126.012.083-.005.165-.012.248-.012a3.865 3.865 0 0 1 0 7.73c-.075 0-.148-.007-.222-.011-.052.001-.099.011-.152.011h-14.11a4.24 4.24 0 0 1-1.903-.424l-.006-.018a4.155 4.155 0 0 1-.799-.504c-.77-.63-1.154-1.41-1.154-2.337V3.865a3.865 3.865 0 1 1 7.73 0c0 .075-.009.258-.009.276V24.27h.008zM53.281 13.628a5.955 5.955 0 0 0 2.755.652 5.907 5.907 0 0 0 4.011-1.57l-4.828 6.045v9.45c0 .484-.106.924-.313 1.323a4.03 4.03 0 0 1-7.519-.221 2.694 2.694 0 0 1-.233-1.105v-9.578L37.79 7.008c-.775-.996-1.378-1.452-1.557-2.465a16.466 16.466 0 0 1-.063-.678A3.865 3.865 0 0 1 40.035 0c1.483 0 2.633.92 3.418 2.063.027.04 7.711 9.687 7.711 9.687l.07.076-.07-.076s5.783-7.18 7.706-9.578C59.7 1.007 60.815 0 62.34 0a3.865 3.865 0 0 1 3.865 3.865c0 .294-.053.643-.069.716-.183.978-.923 1.529-1.506 2.393l-4.582 5.736a5.907 5.907 0 0 1-4.011 1.57c-1.008 0-1.94-.23-2.755-.652zm29.73 8.435c1.782-.251 3.226-1.461 3.954-3.059 0 0 8.429-16.63 8.677-16.919A3.852 3.852 0 0 1 99.061 0a3.865 3.865 0 0 1 3.864 3.865v.195c0 .437-.092.874-.277 1.311 0 0-12.052 23.51-12.087 23.602-.63 1.682-2.022 3.027-3.9 3.027-1.885 0-3.235-1.368-3.905-3.041-.009-.022-4.747-9.298-4.747-9.298S70.751 5.503 70.646 5.225c-.163-.328-.25-1.308-.25-1.36a3.865 3.865 0 0 1 7.43-1.488c.12.164 8.73 16.844 8.877 17.128-.783 1.345-2.102 2.333-3.691 2.558zM28.666 0a3.865 3.865 0 0 1 3.864 3.865c0 .052-.087 1.032-.25 1.36-.105.278-7.364 14.436-7.364 14.436a5.02 5.02 0 0 1-4.31 2.45c-1.896 0-3.489-1.07-4.384-2.606.147-.284 8.758-16.964 8.877-17.128A3.865 3.865 0 0 1 28.666 0zm-8.06 22.112c-2.097 0-3.827-1.308-4.647-3.108 0 0-8.429-16.63-8.677-16.919A3.852 3.852 0 0 0 3.865 0 3.865 3.865 0 0 0 0 3.865v.195c0 .437.092.874.277 1.311 0 0 12.053 23.51 12.087 23.602.63 1.682 2.022 3.027 3.9 3.027 1.885 0 3.236-1.368 3.905-3.041.01-.022 4.747-9.298 4.747-9.298a5.02 5.02 0 0 1-4.31 2.45z"/>
</svg>
