<svg xmlns="http://www.w3.org/2000/svg" width="64" height="64" viewBox="0 0 64 64">
    <defs>
        <linearGradient id="a" x1="50%" x2="50%" y1="0%" y2="100%">
            <stop offset="0%" stop-color="#84CFFF"/>
            <stop offset="100%" stop-color="#4DA2FF"/>
        </linearGradient>
    </defs>
    <g fill="none" fill-rule="evenodd">
        <circle cx="32" cy="32" r="32" fill="url(#a)"/>
        <path fill="#FFF" d="M28.941 37.453h-.773c-.258 0-.51-.006-.756-.018a9.336 9.336 0 0 1-.861-.088c-.164.188-.522.504-1.072.949-.551.445-1.202.914-1.952 1.406-.75.491-1.54.937-2.373 1.335-.832.398-1.611.656-2.338.773h-.035l-.07.017a.757.757 0 0 1-.72-.228.846.846 0 0 1-.23-.597c0-.07.007-.13.018-.176a.686.686 0 0 1 .053-.14h-.035a43.13 43.13 0 0 0 1.178-2.162c.504-.972.755-1.868.755-2.688v-.07a9.99 9.99 0 0 1-2.53-1.827 10.29 10.29 0 0 1-1.794-2.39c-.469-.866-.82-1.78-1.054-2.74-.235-.96-.352-1.91-.352-2.846 0-1.523.38-2.952 1.143-4.287.761-1.335 1.81-2.495 3.146-3.479 1.336-.983 2.895-1.762 4.676-2.336 1.781-.574 3.691-.861 5.73-.861 2.016 0 3.909.287 5.678.86 1.77.575 3.31 1.354 4.623 2.337 1.313.984 2.35 2.144 3.111 3.48a8.512 8.512 0 0 1 1.143 4.286c.023 1.71-.328 3.273-1.055 4.69a10.863 10.863 0 0 1-3.023 3.637c-1.29 1.008-2.813 1.787-4.57 2.337-1.758.55-3.645.826-5.66.826zm-3.304-2.425l1.23.106a11.5 11.5 0 0 0 1.477.105h.668c1.71 0 3.299-.228 4.763-.685 1.465-.457 2.73-1.101 3.797-1.933a9.287 9.287 0 0 0 2.514-2.951A7.72 7.72 0 0 0 41 25.963a6.418 6.418 0 0 0-.967-3.408c-.644-1.055-1.517-1.974-2.619-2.759-1.102-.784-2.402-1.405-3.902-1.862-1.5-.457-3.106-.685-4.817-.685-1.71 0-3.322.228-4.834.685-1.511.457-2.836 1.078-3.972 1.862-1.137.785-2.028 1.704-2.672 2.759a6.418 6.418 0 0 0-.967 3.408c0 1.452.363 2.916 1.09 4.392.726 1.476 1.863 2.612 3.41 3.408l1.23.633-.105 1.37-.07.615c-.047.41-.27 1.154-.668 2.231.633-.375 1.26-.814 1.88-1.317.622-.504 1.014-.861 1.178-1.072l1.442-1.195zm24.363 0c0 1.64-.398 3.086-1.195 4.34-.797 1.253-2.028 2.301-3.692 3.145v.07c0 .726.14 1.57.422 2.53.281.96.54 1.64.774 2.038a.686.686 0 0 1 .052.14.715.715 0 0 1-.193.668.716.716 0 0 1-.527.21h-.211c-1.243-.21-2.496-.843-3.762-1.897s-2.027-1.745-2.285-2.073c-.281.024-.528.041-.738.053-.211.012-.434.017-.668.017h-.668c-1.149 0-2.233-.1-3.252-.298-1.02-.2-1.975-.492-2.866-.879a11.568 11.568 0 0 1-4.36-3.25c.048-.047.663-.07 1.847-.07 1.183 0 1.646.012 1.388.035a9.941 9.941 0 0 0 3.2 1.669c1.172.363 2.52.545 4.043.545h.685c.457 0 .803-.024 1.037-.07l1.196-.176.65.878c.434.586 1.201 1.277 2.303 2.073-.094-.351-.164-1.042-.211-2.073l-.07-1.546 1.09-.527c1.335-.68 2.296-1.47 2.882-2.372.586-.902.879-1.962.879-3.18 0-.984-.17-1.839-.51-2.565-.34-.726-.99-1.429-1.95-2.108.116-.375.228-.773.333-1.195.106-.421.182-.831.229-1.23 1.476.867 2.537 1.886 3.181 3.057.645 1.172.967 2.519.967 4.041z"/>
    </g>
</svg>
