<svg xmlns="http://www.w3.org/2000/svg" width="64" height="64" viewBox="0 0 64 64">
    <defs>
        <linearGradient id="a" x1="50%" x2="50%" y1="0%" y2="100%">
            <stop offset="0%" stop-color="#5BE8AA"/>
            <stop offset="100%" stop-color="#2ECC71"/>
        </linearGradient>
    </defs>
    <g fill="none" fill-rule="evenodd">
        <circle cx="32" cy="32" r="32" fill="url(#a)"/>
        <path fill="#FFF" fill-rule="nonzero" d="M46.985 17.015A10.225 10.225 0 0 0 39.708 14c-2.75 0-5.334 1.07-7.278 3.015l-7.707 7.707-7.708 7.708A10.225 10.225 0 0 0 14 39.708c0 2.749 1.07 5.333 3.015 7.277A10.225 10.225 0 0 0 24.292 50c2.75 0 5.334-1.07 7.278-3.015l7.707-7.707 7.708-7.708A10.225 10.225 0 0 0 50 24.292c0-2.749-1.07-5.333-3.015-7.277zM30.113 44.999a7.806 7.806 0 0 1-5.556 2.301 7.806 7.806 0 0 1-5.556-2.301 7.806 7.806 0 0 1-2.301-5.556c0-2.099.817-4.072 2.301-5.556l6.387-6.387L36.5 38.612l-6.387 6.387zm14.886-14.886L38.612 36.5 27.5 25.388l6.387-6.387a7.806 7.806 0 0 1 5.556-2.301c2.098 0 4.072.817 5.556 2.301a7.806 7.806 0 0 1 2.301 5.556 7.806 7.806 0 0 1-2.301 5.556z"/>
    </g>
</svg>
