<svg xmlns="http://www.w3.org/2000/svg" width="20" height="20" viewBox="0 0 20 20">
    <path fill="#FFF" fill-rule="nonzero" d="M17.992 2.003A5.455 5.455 0 0 0 14.111.397c-1.466 0-2.845.57-3.882 1.606L6.12 6.112l-4.111 4.109A5.449 5.449 0 0 0 .4 14.1c0 1.465.571 2.843 1.608 3.88a5.455 5.455 0 0 0 3.881 1.606c1.466 0 2.845-.57 3.882-1.607l4.11-4.108 4.111-4.109a5.449 5.449 0 0 0 1.608-3.88 5.449 5.449 0 0 0-1.608-3.879zM8.994 16.92a4.164 4.164 0 0 1-2.963 1.227 4.164 4.164 0 0 1-2.964-1.227A4.16 4.16 0 0 1 1.84 13.96a4.16 4.16 0 0 1 1.227-2.962l3.407-3.404 5.926 5.923-3.406 3.404zm7.939-7.934l-3.407 3.404L7.6 6.467l3.406-3.404a4.164 4.164 0 0 1 2.963-1.227c1.12 0 2.172.435 2.964 1.227a4.16 4.16 0 0 1 1.227 2.961 4.16 4.16 0 0 1-1.227 2.962z"/>
</svg>
