<svg xmlns="http://www.w3.org/2000/svg" width="22" height="18" viewBox="0 0 22 18">
    <g fill="none" fill-rule="evenodd">
        <path d="M-5-7h32v32H-5z"/>
        <path fill="#A0A0A0" fill-rule="nonzero" d="M19.075 11.227a24.633 24.633 0 0 0-1.836-1.126 4.22 4.22 0 0 0 1.102-2.849v-2.49c0-2.251-1.744-4.071-3.9-4.071-2.156 0-3.9 1.82-3.9 4.07v2.515a4.2 4.2 0 0 0 1.055 2.778c-1.605.862-4.542 2.61-4.542 3.879v1.759c0 .906.735 1.641 1.642 1.641h11.307c.906 0 1.64-.735 1.64-1.641v-1.76c-.022-.526-.343-1.22-2.568-2.705zM8.362 15.124V13.98c.367-.743 3.785-2.826 4.68-3.161a.669.669 0 0 0 .435-.599.712.712 0 0 0-.32-.67 2.74 2.74 0 0 1-1.285-2.323V4.762c0-1.485 1.147-2.682 2.569-2.682s2.569 1.197 2.569 2.682v2.514c0 .982-.505 1.892-1.33 2.37a.67.67 0 0 0-.345.647c.023.263.161.503.413.599.276.12 1.377.718 2.432 1.412 1.697 1.102 2.042 1.605 2.087 1.725v1.095a.82.82 0 0 1-.82.82H9.183a.82.82 0 0 1-.821-.82zm-1.881-5.55c.23.144.344.36.321.647a.669.669 0 0 1-.436.599c-.894.335-4.312 2.418-4.68 3.16v1.964h3.39a.694.694 0 1 1 0 1.39H1.021c-.368 0-.666-.312-.666-.695v-2.706c0-1.293 2.96-3.041 4.565-3.903a4.2 4.2 0 0 1-1.055-2.778V4.738c0-2.251 1.743-4.071 3.9-4.071.49 0 1.101.19 1.834.57a.745.745 0 0 1 .307 1.027.643.643 0 0 1-.878.24c-.495-.283-.916-.424-1.263-.424-1.423 0-2.57 1.197-2.57 2.682v2.49a2.74 2.74 0 0 0 1.285 2.323z"/>
    </g>
</svg>
