<svg xmlns="http://www.w3.org/2000/svg" width="20" height="13" viewBox="0 0 20 13">
    <g fill="none" fill-rule="evenodd">
        <path d="M-6-10h32v32H-6z"/>
        <path fill="#A0A0A0" fill-rule="nonzero" d="M19.378.877a.727.727 0 0 0-1.033 0l-9.453 9.496c-.443.288-1.034.576-1.624.576-.591 0-1.182-.144-1.625-.576L1.655 6.488a.727.727 0 0 0-1.033 0 .683.683 0 0 0 0 1.008l3.987 3.885c.739.575 1.625 1.007 2.659 1.007 1.034 0 2.067-.432 2.658-1.007l9.452-9.497a.683.683 0 0 0 0-1.007z"/>
    </g>
</svg>
