<svg xmlns="http://www.w3.org/2000/svg" width="22" height="18" viewBox="0 0 22 18">
    <path fill="#FFF" fill-rule="nonzero" d="M19.773 2.183C18.531.82 16.876 0 14.944 0c-1.656 0-3.036.546-4.277 1.501C9.425.546 7.907 0 6.389 0 4.596 0 2.802.819 1.56 2.183-.37 4.367-.51 7.642 1.146 10.098c3.45 5.322 7.865 6.687 9.107 6.96h.414c.138 0 .276-.137.414 0 1.241-.273 5.657-1.638 9.106-6.96 1.656-2.593 1.518-5.868-.414-7.915zm-.69 7.096c-3.173 4.913-7.175 6.141-8.278 6.414h-.276c-1.104-.273-5.105-1.501-8.279-6.414-1.38-2.047-1.242-4.64.276-6.277.966-1.092 2.346-1.774 3.863-1.774 1.38 0 2.76.546 3.726 1.501l.138.137c.276.273.69.273.966 0l.138-.137c.965-.955 2.207-1.5 3.587-1.5 1.518 0 2.897.682 3.863 1.773 1.518 1.638 1.518 4.23.276 6.277z"/>
</svg>
