<svg xmlns="http://www.w3.org/2000/svg" width="20" height="16" viewBox="0 0 20 16">
    <g fill="none" fill-rule="evenodd">
        <path d="M-6-8h32v32H-6z"/>
        <path fill="#A0A0A0" fill-rule="nonzero" d="M7.023 2.078c-.441 0-.736-.295-.736-.738 0-.442.295-.738.736-.738h11.775c.441 0 .736.296.736.738 0 .443-.295.738-.736.738H7.023zm11.775 5.165c.441 0 .736.295.736.738s-.295.738-.736.738H7.023c-.441 0-.736-.295-.736-.738s.295-.738.736-.738h11.775zm0 6.64c.441 0 .736.296.736.738 0 .443-.295.738-.736.738H7.023c-.441 0-.736-.295-.736-.738 0-.442.295-.737.736-.737h11.775zM.548.75a.71.71 0 0 1 1.03 0c.147.148.294.295.294.59 0 .148-.147.443-.295.443 0 .148-.294.295-.441.295-.147 0-.442-.147-.589-.295C.4 1.635.4 1.488.4 1.34c0-.147 0-.442.147-.59zm0 6.64a.71.71 0 0 1 1.03 0c.147.148.294.296.294.59 0 .148-.147.444-.295.444 0 .147-.294.295-.441.295-.147 0-.442-.148-.589-.295C.4 8.276.4 8.128.4 7.98c0-.148 0-.443.147-.59zm0 6.641a.71.71 0 0 1 1.03 0c.147.148.294.295.294.59 0 .148-.147.443-.295.443 0 .148-.294.295-.441.295-.147 0-.442-.147-.589-.295C.4 14.916.4 14.769.4 14.621c0-.147 0-.442.147-.59z"/>
    </g>
</svg>
