<svg xmlns="http://www.w3.org/2000/svg" width="22" height="20" viewBox="0 0 22 20">
    <g fill="none" fill-rule="evenodd">
        <path d="M-5-5h32v32H-5z"/>
        <path fill="#FFF" d="M9.294 13.67h-.458c-.153 0-.302-.004-.448-.011a5.532 5.532 0 0 1-.51-.052c-.098.11-.31.298-.636.562-.326.264-.712.541-1.156.833-.445.291-.913.555-1.406.791a5.132 5.132 0 0 1-1.386.458h-.02l-.042.01a.449.449 0 0 1-.427-.135.501.501 0 0 1-.136-.354c0-.042.004-.076.01-.104a.407.407 0 0 1 .032-.083H2.69c.167-.278.4-.705.698-1.28.299-.577.448-1.108.448-1.594v-.041a5.92 5.92 0 0 1-1.5-1.083 6.098 6.098 0 0 1-1.063-1.416 6.777 6.777 0 0 1-.625-1.624A7.095 7.095 0 0 1 .44 6.86c0-.902.226-1.749.677-2.54a6.64 6.64 0 0 1 1.865-2.061c.791-.583 1.715-1.045 2.77-1.385a11.01 11.01 0 0 1 3.396-.51c1.195 0 2.316.17 3.365.51 1.049.34 1.962.802 2.74 1.385a6.742 6.742 0 0 1 1.843 2.061c.452.791.677 1.638.677 2.54.014 1.014-.194 1.94-.625 2.78a6.437 6.437 0 0 1-1.791 2.155c-.764.597-1.667 1.059-2.709 1.385-1.041.326-2.16.49-3.354.49zm-1.958-1.438l.729.063c.32.041.611.062.875.062h.396a9.438 9.438 0 0 0 2.823-.406c.868-.27 1.618-.652 2.25-1.145a5.503 5.503 0 0 0 1.49-1.749 4.575 4.575 0 0 0 .541-2.197c0-.722-.191-1.395-.573-2.02a5.583 5.583 0 0 0-1.552-1.634c-.653-.465-1.424-.833-2.312-1.104a9.75 9.75 0 0 0-2.855-.406 9.854 9.854 0 0 0-2.864.406c-.896.271-1.68.639-2.354 1.104-.674.465-1.202 1.01-1.584 1.635a3.803 3.803 0 0 0-.573 2.02c0 .86.216 1.728.646 2.602.43.875 1.104 1.548 2.021 2.02l.73.375-.063.812-.042.364c-.028.243-.16.684-.396 1.322a9.29 9.29 0 0 0 1.115-.78c.368-.299.6-.51.698-.636l.854-.708zm14.437 0c0 .972-.236 1.83-.708 2.572-.472.743-1.201 1.364-2.188 1.863v.042c0 .43.084.93.25 1.5.167.568.32.971.459 1.207a.407.407 0 0 1 .042.167.424.424 0 0 1-.438.437h-.125c-.736-.125-1.48-.5-2.23-1.125-.75-.624-1.2-1.034-1.353-1.228-.167.014-.313.024-.438.031-.125.007-.257.01-.396.01h-.395c-.681 0-1.323-.058-1.928-.176a8.199 8.199 0 0 1-1.697-.52 6.855 6.855 0 0 1-2.583-1.926c.027-.029.392-.043 1.093-.043s.976.007.823.021c.57.444 1.201.774 1.896.99.694.214 1.493.322 2.396.322h.406c.27 0 .475-.014.614-.042l.709-.104.385.52c.257.348.712.757 1.365 1.23-.056-.209-.098-.618-.125-1.23l-.042-.915.646-.313c.792-.402 1.36-.87 1.708-1.405.347-.535.521-1.163.521-1.885 0-.583-.1-1.09-.302-1.52-.201-.43-.587-.846-1.156-1.249.07-.222.135-.458.198-.708a5.8 5.8 0 0 0 .135-.729c.875.514 1.503 1.118 1.885 1.812.382.694.573 1.492.573 2.394z"/>
    </g>
</svg>
