<svg xmlns="http://www.w3.org/2000/svg" width="18" height="22" viewBox="0 0 18 22">
    <g fill="none" fill-rule="evenodd">
        <path d="M-7-6h32v32H-7z"/>
        <g fill="#FFF" fill-rule="nonzero">
            <path d="M11.578 14.99H6.421c-.71 0-1.29-.598-1.29-1.333v-3.332c0-.735.58-1.333 1.29-1.333h5.157c.711 0 1.29.598 1.29 1.333v3.332c0 .735-.579 1.332-1.29 1.332zm-5.157-4.665v3.332h5.157v-3.332H6.421z"/>
            <path d="M10.934 10.325a.656.656 0 0 1-.645-.666v-2c0-.734-.578-1.332-1.289-1.332s-1.29.598-1.29 1.333v1.999a.656.656 0 0 1-.644.666.656.656 0 0 1-.645-.666v-2C6.421 6.19 7.578 4.996 9 4.996c1.422 0 2.579 1.195 2.579 2.665v1.999a.656.656 0 0 1-.645.666z"/>
            <path d="M9 21.652a.65.65 0 0 1-.16-.02C5.076 20.638.62 14.869.62 10.992V2.813c0-.368.289-.667.645-.667 1.205 0 2.994-.507 5.257-1.149A184.26 184.26 0 0 1 8.837.352a.632.632 0 0 1 .329.001c.755.207 1.469.412 2.143.605 2.321.664 4.154 1.19 5.427 1.19.357 0 .645.298.645.666v8.177c0 4.02-3.68 9.665-8.25 10.647a.63.63 0 0 1-.131.014zM1.908 3.447v7.544c0 3.287 3.882 8.34 7.108 9.31 3.761-.92 7.076-5.92 7.076-9.31V3.448c-1.356-.126-3.055-.612-5.128-1.207-.62-.177-1.275-.365-1.965-.555-.755.205-1.468.407-2.136.597-2.009.57-3.657 1.038-4.955 1.164z"/>
        </g>
    </g>
</svg>
