<svg xmlns="http://www.w3.org/2000/svg" width="64" height="64" viewBox="0 0 64 64">
    <defs>
        <linearGradient id="a" x1="50%" x2="50%" y1="0%" y2="100%">
            <stop offset="0%" stop-color="#CCF14A"/>
            <stop offset="100%" stop-color="#9DDE24"/>
        </linearGradient>
    </defs>
    <g fill="none" fill-rule="evenodd">
        <circle cx="32" cy="32" r="32" fill="url(#a)"/>
        <path fill="#FFF" fill-rule="nonzero" d="M47.367 22.684C45.272 20.382 42.477 19 39.218 19c-2.794 0-5.122.921-7.218 2.533C29.905 19.921 27.343 19 24.782 19c-3.027 0-6.054 1.382-8.15 3.684-3.259 3.685-3.492 9.211-.698 13.356 5.821 8.981 13.272 11.284 15.368 11.744H32c.233 0 .466-.23.698 0 2.096-.46 9.547-2.763 15.368-11.744 2.794-4.375 2.56-9.901-.699-13.356zM46.203 34.66c-5.355 8.29-12.107 10.362-13.97 10.823h-.466c-1.862-.46-8.615-2.533-13.97-10.823-2.328-3.454-2.095-7.83.466-10.593 1.63-1.842 3.958-2.993 6.52-2.993 2.327 0 4.656.92 6.286 2.533l.232.23c.466.46 1.165.46 1.63 0l.233-.23c1.63-1.612 3.726-2.533 6.054-2.533 2.561 0 4.89 1.151 6.52 2.993 2.56 2.764 2.56 7.139.465 10.593z"/>
    </g>
</svg>
