<svg xmlns="http://www.w3.org/2000/svg" width="64" height="64" viewBox="0 0 64 64">
    <defs>
        <linearGradient id="a" x1="50%" x2="50%" y1="0%" y2="100%">
            <stop offset="0%" stop-color="#FFE95C"/>
            <stop offset="100%" stop-color="#FDCF2F"/>
        </linearGradient>
    </defs>
    <g fill="none" fill-rule="evenodd">
        <circle cx="32" cy="32" r="32" fill="url(#a)"/>
        <path fill="#FFF" fill-rule="nonzero" d="M26.977 22.007c-.745 0-1.242-.498-1.242-1.245 0-.747.497-1.245 1.242-1.245h19.87c.744 0 1.241.498 1.241 1.245 0 .747-.497 1.245-1.242 1.245h-19.87zm19.87 8.716c.744 0 1.241.498 1.241 1.245 0 .747-.497 1.245-1.242 1.245h-19.87c-.745 0-1.241-.498-1.241-1.245 0-.747.497-1.245 1.242-1.245h19.87zm0 11.206c.744 0 1.241.498 1.241 1.245 0 .747-.497 1.245-1.242 1.245h-19.87c-.745 0-1.241-.498-1.241-1.245 0-.747.497-1.245 1.242-1.245h19.87zM16.047 19.766a1.198 1.198 0 0 1 1.739 0c.248.249.497.498.497.996 0 .249-.249.747-.497.747 0 .249-.497.498-.745.498-.249 0-.745-.25-.994-.498-.248-.25-.248-.498-.248-.747 0-.25 0-.747.248-.996zm0 11.206a1.198 1.198 0 0 1 1.739 0c.248.249.497.498.497.996 0 .249-.249.747-.497.747 0 .249-.497.498-.745.498-.249 0-.745-.25-.994-.498-.248-.25-.248-.498-.248-.747 0-.25 0-.747.248-.996zm0 11.206a1.198 1.198 0 0 1 1.739 0c.248.249.497.498.497.996 0 .249-.249.747-.497.747 0 .249-.497.498-.745.498-.249 0-.745-.25-.994-.498-.248-.25-.248-.498-.248-.747 0-.25 0-.747.248-.996z"/>
    </g>
</svg>
