<svg xmlns="http://www.w3.org/2000/svg" width="64" height="64" viewBox="0 0 64 64">
    <defs>
        <linearGradient id="a" x1="50%" x2="50%" y1="0%" y2="100%">
            <stop offset="0%" stop-color="#92E0FD"/>
            <stop offset="100%" stop-color="#59BDF9"/>
        </linearGradient>
    </defs>
    <g fill="none" fill-rule="evenodd">
        <circle cx="32" cy="32" r="32" fill="url(#a)"/>
        <path fill="#FFF" fill-rule="nonzero" d="M44.616 35.48a38.49 38.49 0 0 0-2.867-1.759c1.075-1.16 1.72-2.769 1.72-4.452v-3.891c0-3.517-2.723-6.361-6.093-6.361-3.369 0-6.093 2.844-6.093 6.36v3.93c0 1.608.61 3.18 1.649 4.34-2.51 1.346-7.097 4.077-7.097 6.06v2.75A2.564 2.564 0 0 0 28.4 45.02h17.668a2.564 2.564 0 0 0 2.564-2.564v-2.749c-.036-.823-.538-1.908-4.015-4.227zm-16.738 6.088v-1.786c.574-1.16 5.914-4.415 7.312-4.938.394-.15.645-.487.681-.936a1.112 1.112 0 0 0-.502-1.047c-1.218-.749-2.007-2.133-2.007-3.63v-3.853c0-2.32 1.792-4.19 4.014-4.19 2.223 0 4.015 1.87 4.015 4.19v3.928c0 1.534-.789 2.956-2.08 3.704a1.048 1.048 0 0 0-.537 1.01c.036.412.251.786.645.936.43.187 2.15 1.122 3.8 2.207 2.652 1.721 3.19 2.507 3.261 2.694v1.711c0 .708-.574 1.282-1.282 1.282H29.16a1.282 1.282 0 0 1-1.282-1.282zm-2.939-8.67c.358.224.538.561.502 1.01-.036.45-.287.786-.681.936-1.398.523-6.738 3.778-7.312 4.938v3.068h5.295a1.085 1.085 0 0 1 0 2.17h-6.334c-.574 0-1.04-.486-1.04-1.085v-4.228c0-2.02 4.624-4.751 7.133-6.098a6.564 6.564 0 0 1-1.649-4.34V25.34c0-3.517 2.724-6.36 6.093-6.36.766 0 1.722.297 2.867.891a1.164 1.164 0 0 1 .478 1.604c-.275.482-.889.65-1.371.374-.773-.441-1.431-.662-1.974-.662-2.222 0-4.014 1.87-4.014 4.19v3.892c0 1.496.788 2.88 2.007 3.629z"/>
    </g>
</svg>
