<svg xmlns="http://www.w3.org/2000/svg" width="64" height="64" viewBox="0 0 64 64">
    <defs>
        <linearGradient id="a" x1="50%" x2="50%" y1="0%" y2="100%">
            <stop offset="0%" stop-color="#FEA788"/>
            <stop offset="100%" stop-color="#FC6E50"/>
        </linearGradient>
    </defs>
    <g fill="none" fill-rule="evenodd">
        <circle cx="32" cy="32" r="32" fill="url(#a)"/>
        <g fill="#FFF" fill-rule="nonzero">
            <path d="M36.695 40.32h-8.797c-1.213 0-2.2-1.033-2.2-2.302v-5.755c0-1.269.987-2.301 2.2-2.301h8.797c1.213 0 2.2 1.032 2.2 2.301v5.755c0 1.27-.987 2.302-2.2 2.302zm-8.797-8.057v5.755h8.797v-5.755h-8.797z"/>
            <path d="M35.596 32.263c-.608 0-1.1-.515-1.1-1.15V27.66c0-1.27-.986-2.302-2.2-2.302-1.212 0-2.199 1.032-2.199 2.302v3.453c0 .635-.492 1.15-1.1 1.15-.606 0-1.1-.515-1.1-1.15V27.66c0-2.539 1.974-4.604 4.4-4.604s4.399 2.065 4.399 4.604v3.453c0 .635-.492 1.15-1.1 1.15z"/>
            <path d="M32.297 51.829c-.091 0-.184-.013-.273-.036C25.603 50.076 18 40.113 18 33.414V19.29c0-.635.493-1.15 1.1-1.15 2.056 0 5.107-.876 8.968-1.986 1.233-.354 2.55-.732 3.95-1.115.185-.05.379-.048.562.001 1.287.358 2.506.711 3.655 1.045 3.96 1.148 7.087 2.054 9.26 2.054.607 0 1.099.516 1.099 1.151v14.125c0 6.943-6.278 16.694-14.073 18.39-.075.017-.15.025-.224.025zM20.2 20.383v13.031c0 5.677 6.621 14.405 12.124 16.08 6.416-1.588 12.07-10.225 12.07-16.08V20.385c-2.312-.217-5.21-1.058-8.746-2.084-1.058-.308-2.177-.63-3.353-.96-1.288.354-2.503.703-3.644 1.031-3.427.985-6.239 1.793-8.451 2.01z"/>
        </g>
    </g>
</svg>
