<svg xmlns="http://www.w3.org/2000/svg" width="64" height="64" viewBox="0 0 64 64">
    <defs>
        <linearGradient id="a" x1="50%" x2="50%" y1="0%" y2="100%">
            <stop offset="0%" stop-color="#FC5C4A"/>
            <stop offset="100%" stop-color="#F82F24"/>
        </linearGradient>
    </defs>
    <g fill="none" fill-rule="evenodd">
        <circle cx="32" cy="32" r="32" fill="url(#a)"/>
        <g fill="#FFF" fill-rule="nonzero">
            <path d="M41.77 14.078c2.507 0 4.743 1 6.455 2.817 2.574 2.635 2.79 6.866.561 10.236-3.625 5.403-9.764 8.895-12.63 8.895-2.867 0-9.006-3.492-12.63-8.892-2.23-3.196-2.014-7.429.559-10.237 1.666-1.768 4.065-2.819 6.457-2.819 1.97 0 3.96.666 5.613 1.864 1.705-1.24 3.53-1.864 5.615-1.864zm-1.103 18.057c2.372-1.425 4.554-3.462 6.397-6.218 1.643-2.615 1.54-5.797-.344-7.762a6.706 6.706 0 0 0-4.95-2.196c-1.739 0-3.336.654-4.596 1.858l-.181.173a1.067 1.067 0 0 1-1.494 0l-.18-.173c-1.23-1.174-2.996-1.858-4.777-1.858a6.708 6.708 0 0 0-4.953 2.2c-1.95 2.03-2.104 5.234-.345 7.755 1.846 2.76 4.028 4.796 6.4 6.221 1.616.972 3.083 1.534 4.33 1.837h.343c1.281-.308 2.742-.87 4.35-1.837zM29.124 37.876c.1.06.197.115.29.168 1.165.664 2.255 1.013 4.757 1.638.468.116.718.18.99.251.357.093 1.812.545 2.427.742.396.107.766.312 1.096.597l4.898-2.816c1.458-.838 3.336-.463 4.277.858.518.726.709 1.643.521 2.513a3.15 3.15 0 0 1-1.504 2.068L35.477 50.45c-.052.03-.097.059-.18.113-.191.126-.288.182-.414.239-.31.14-.524.185-.792.142a7.564 7.564 0 0 1-.823-.188l-9.213-2.604c-.302-.115-1.504-.4-1.679-.4-.08-.001-1.332.508-3.46 1.42a1.015 1.015 0 0 1-1.325-.518.823.823 0 0 1 .446-1.078l4.003-1.658a.784.784 0 0 1 .222-.06c.133-.013.212.002.525.086.093.025.192.054.314.091.069.02.161.05.326.1.169.052.295.09.42.124 8.191 2.258 8.191 2.258 9.8 2.705.431.032.736-.007.908-.106l11.398-6.553a1.338 1.338 0 0 0 .412-1.935c-.394-.553-1.213-.7-1.863-.326l-4.868 2.8c.108.462.106.932-.014 1.381a2.89 2.89 0 0 1-3.551 2.045l-8.291-2.245c-.907-.317-1.357-.71-1.064-1.436.181-.45.584-.59 1.052-.463l8.775 2.376a1.064 1.064 0 0 0 1.307-.754c.144-.546-.215-1.166-.768-1.316a88.494 88.494 0 0 0-2.375-.727 58.232 58.232 0 0 0-.97-.246c-2.64-.659-3.881-1.059-5.226-1.825a39.143 39.143 0 0 1-.985-.586c-2.008-1.22-2.83-1.542-4.28-1.444-1.673.11-3.44.765-5.622 2.088l-3.224 1.65a.964.964 0 0 1-1.274-.38c-.238-.458-.076-.993.366-1.219l3.254-1.664c2.375-1.44 4.399-2.173 6.368-2.302 1.917-.13 3.044.3 5.36 1.707.398.242.472.287.652.393z"/>
        </g>
    </g>
</svg>
